<?xml version="1.0" encoding="utf-8"?>
<!-- Generator: Adobe Illustrator 21.0.2, SVG Export Plug-In . SVG Version: 6.00 Build 0)  -->
<svg version="1.1" id="Layer_1" xmlns="http://www.w3.org/2000/svg" xmlns:xlink="http://www.w3.org/1999/xlink" x="0px" y="0px"
	 viewBox="0 0 24 24" style="enable-background:new 0 0 24 24;" xml:space="preserve">
<style type="text/css">
	.st0{fill:#4D4C59;}
</style>
<path class="st0" d="M23.9,14.7L9.3,0.1C9.3,0.1,9.1,0,9,0H0.5C0.4,0,0.2,0.1,0.1,0.1C0.1,0.2,0,0.4,0,0.5L0,9
	c0,0.1,0.1,0.3,0.1,0.4l14.5,14.5C14.8,24,14.9,24,15,24s0.3,0,0.4-0.1l8.5-8.5C24,15.2,24,14.9,23.9,14.7z M5.5,8
	C4.1,8,3,6.9,3,5.5S4.1,3,5.5,3S8,4.1,8,5.5S6.9,8,5.5,8z"/>
</svg>
