<?xml version="1.0" encoding="utf-8"?>
<!-- Generator: Adobe Illustrator 21.0.2, SVG Export Plug-In . SVG Version: 6.00 Build 0)  -->
<svg version="1.0" id="Layer_1" xmlns="http://www.w3.org/2000/svg" xmlns:xlink="http://www.w3.org/1999/xlink" x="0px" y="0px"
	 viewBox="0 0 24 24" style="enable-background:new 0 0 24 24;" xml:space="preserve">
<style type="text/css">
	.st0{fill-rule:evenodd;clip-rule:evenodd;fill:#ffffff;}
</style>
<path class="st0" d="M23.7,5.2l-1.9-1.9C21.6,3.1,21.4,3,21.2,3s-0.5,0.1-0.6,0.3L9,14.9L3.5,9.3C3.3,9.2,3.1,9.1,2.8,9.1
	S2.4,9.2,2.2,9.3l-1.9,1.9C0.1,11.5,0,11.7,0,11.9c0,0.2,0.1,0.5,0.3,0.7l8.1,8.1C8.5,20.9,8.7,21,9,21s0.5-0.1,0.6-0.3L23.7,6.5
	C23.9,6.3,24,6.1,24,5.9C24,5.6,23.9,5.4,23.7,5.2z"/>
</svg>
