<?xml version="1.0" encoding="utf-8"?>
<!-- Generator: Adobe Illustrator 21.0.2, SVG Export Plug-In . SVG Version: 6.00 Build 0)  -->
<svg version="1.0" id="Layer_1" xmlns="http://www.w3.org/2000/svg" xmlns:xlink="http://www.w3.org/1999/xlink" x="0px" y="0px"
	 viewBox="0 0 24 24" style="enable-background:new 0 0 24 24;" xml:space="preserve">
<style type="text/css">
	.st0{fill:#4D4C59;}
</style>
<path class="st0" d="M23.9,23.1l-9-9c1.3-1.5,2.2-3.5,2.2-5.6C17,3.8,13.2,0,8.5,0S0,3.8,0,8.5S3.8,17,8.5,17c2.2,0,4.1-0.8,5.6-2.2
	l9,9c0.1,0.1,0.2,0.1,0.4,0.1s0.3,0,0.4-0.1C24,23.7,24,23.3,23.9,23.1z M8.5,16C4.4,16,1,12.6,1,8.5S4.4,1,8.5,1S16,4.4,16,8.5
	S12.6,16,8.5,16z"/>
</svg>
