<?xml version="1.0" encoding="utf-8"?>
<!-- Generator: Adobe Illustrator 21.0.2, SVG Export Plug-In . SVG Version: 6.00 Build 0)  -->
<svg version="1.1" id="Layer_1" xmlns="http://www.w3.org/2000/svg" xmlns:xlink="http://www.w3.org/1999/xlink" x="0px" y="0px"
	 viewBox="0 0 24 24" style="enable-background:new 0 0 24 24;" xml:space="preserve">

<path class="st0" d="M13.4,12L23.7,1.7c0.4-0.4,0.4-1,0-1.4s-1-0.4-1.4,0L12,10.6L1.7,0.3c-0.4-0.4-1-0.4-1.4,0s-0.4,1,0,1.4
	L10.6,12L0.3,22.3c-0.4,0.4-0.4,1,0,1.4C0.5,23.9,0.7,24,1,24s0.5-0.1,0.7-0.3L12,13.4l10.3,10.3c0.2,0.2,0.5,0.3,0.7,0.3
	s0.5-0.1,0.7-0.3c0.4-0.4,0.4-1,0-1.4L13.4,12z"/>
</svg>
