<?xml version="1.0" encoding="utf-8"?>
<!-- Generator: Adobe Illustrator 21.0.2, SVG Export Plug-In . SVG Version: 6.00 Build 0)  -->
<svg version="1.0" id="Layer_1" xmlns="http://www.w3.org/2000/svg" xmlns:xlink="http://www.w3.org/1999/xlink" x="0px" y="0px"
	 viewBox="0 0 24 24" style="enable-background:new 0 0 24 24;" xml:space="preserve">
<style type="text/css">
	.st0{fill:#FFFFFF;}
</style>
<path class="st0" d="M12,14c0.3,0,0.5-0.2,0.5-0.5v-7C12.5,6.2,12.3,6,12,6s-0.5,0.2-0.5,0.5v7C11.5,13.8,11.7,14,12,14z M20.1,3.7
	C17.9,1.6,15,0.5,12,0.5C8.9,0.6,6,1.8,3.8,4c-2.2,2.2-3.4,5.1-3.3,8.2c0.1,6.4,5.1,11.3,11.3,11.3c0.1,0,0.1,0,0.2,0
	c6.4-0.1,11.6-5.4,11.5-11.7C23.4,8.7,22.2,5.9,20.1,3.7z M12,22.5C6.2,22.6,1.6,18.1,1.5,12.2c0-2.8,1-5.4,3-7.5
	c2-2,4.7-3.2,7.5-3.2c0.1,0,0.1,0,0.2,0c2.7,0,5.3,1,7.2,2.9c2,1.9,3.1,4.6,3.1,7.4C22.6,17.6,17.9,22.4,12,22.5z M12,16
	c-0.6,0-1,0.4-1,1s0.4,1,1,1s1-0.4,1-1S12.6,16,12,16z M12,17C12,17,12,17,12,17h0.5H12z"/>
</svg>
