<?xml version="1.0" encoding="utf-8"?>
<!-- Generator: Adobe Illustrator 21.0.2, SVG Export Plug-In . SVG Version: 6.00 Build 0)  -->
<svg version="1.1" id="Layer_1" xmlns="http://www.w3.org/2000/svg" xmlns:xlink="http://www.w3.org/1999/xlink" x="0px" y="0px"
	 viewBox="0 0 24 24" style="enable-background:new 0 0 24 24;" xml:space="preserve">
<path class="st0" d="M12,0C5.4,0,0,5.4,0,12s5.4,12,12,12s12-5.4,12-12S18.6,0,12,0z M12,23C5.9,23,1,18.1,1,12S5.9,1,12,1
	s11,4.9,11,11S18.1,23,12,23z M16.9,7.1c-0.2-0.2-0.5-0.2-0.7,0L12,11.3L7.9,7.1C7.7,7,7.3,7,7.1,7.1S7,7.7,7.1,7.9l4.1,4.1
	l-4.1,4.1c-0.2,0.2-0.2,0.5,0,0.7C7.2,17,7.4,17,7.5,17s0.3,0,0.4-0.1l4.1-4.1l4.1,4.1c0.1,0.1,0.2,0.1,0.4,0.1s0.3,0,0.4-0.1
	c0.2-0.2,0.2-0.5,0-0.7L12.7,12l4.1-4.1C17,7.7,17,7.3,16.9,7.1z"/>
</svg>
